<mxfile host="app.diagrams.net" modified="2023-11-15T07:39:51.326Z" agent="Mozilla/5.0 (Windows NT 10.0; Win64; x64) AppleWebKit/537.36 (KHTML, like Gecko) Chrome/119.0.0.0 Safari/537.36 Edg/119.0.0.0" version="22.1.1" etag="qPVXsAIUbIvZow1WsVar" type="github">
  <diagram name="Trang-1" id="8EPRskynjNRhsDqY7v_2">
    <mxGraphModel>
      <root>
        <mxCell id="0" />
        <mxCell id="1" parent="0" />
      </root>
    </mxGraphModel>
  </diagram>
</mxfile>
